<?xml version="1.0" encoding="utf-8"?>
<svg version="1.1" xmlns:xlink="http://www.w3.org/1999/xlink" width="13px" height="13px" viewBox="885 388  13 13" xmlns="http://www.w3.org/2000/svg">
  <path d="M 891.5 388  C 895.14 388  898 390.86  898 394.5  C 898 398.14  895.14 401  891.5 401  C 887.86 401  885 398.14  885 394.5  C 885 390.86  887.86 388  891.5 388  Z " fill-rule="nonzero" fill="#ffffff" stroke="none" />
  <path d="M 891.5 388.5  C 894.86 388.5  897.5 391.14  897.5 394.5  C 897.5 397.86  894.86 400.5  891.5 400.5  C 888.14 400.5  885.5 397.86  885.5 394.5  C 885.5 391.14  888.14 388.5  891.5 388.5  Z " stroke-width="1" stroke="#797979" fill="none" />
  <path d="M 891.5 397.75  C 889.68 397.75  888.25 396.32  888.25 394.5  C 888.25 392.68  889.68 391.25  891.5 391.25  C 893.32 391.25  894.75 392.68  894.75 394.5  C 894.75 396.32  893.32 397.75  891.5 397.75  " fill-rule="nonzero" fill="#797979" stroke="none" />
</svg>